#N canvas 0 0 1440 872 12;
#X msg 51 174 devices;
#X obj 51 246 select 13 10;
#X obj 51 281 bng 19 250 50 0 empty empty empty 0 -10 0 12 #fcfcfc #000000 #000000;
#X obj 81 281 list prepend;
#X obj 182 281 t l;
#X obj 51 316 list append;
#X msg 200 174 close 1;
#X msg 129 174 open 1;
#N canvas 0 22 450 278 (subpatch) 0;
#X array \$0-steps 8 float 3;
#A 0 0 0 0 0 0 0 0 0;
#X coords 0 15 8 0 200 140 1 0 0;
#X restore 631 262 graph;
#X obj 632 217 array set \$0-steps;
#X obj 632 464 hradio 19 1 0 8 empty empty empty 0 -10 0 12 #fcfcfc #000000 #000000 0;
#X obj 475 321 metro;
#X obj 475 351 bng 19 250 50 0 empty empty empty 0 -10 0 12 #fcfcfc #000000 #000000;
#X obj 507 248 /;
#X msg 507 217 60000;
#X obj 507 283 i;
#X obj 507 180 t b b;
#X obj 475 381 i;
#X obj 522 381 + 1;
#X floatatom 475 446 5 0 0 0 - - - 0;
#X obj 631 523 array get \$0-steps;
#X text 726 495 ler uma posição de cada vez;
#X floatatom 631 559 5 0 0 0 - - - 0;
#N canvas 179 204 450 300 snare 0;
#X obj 167 14 inlet;
#X obj 260 38 inlet;
#X obj 205 67 f;
#X msg 216 101 \$1 1 0 \, 0 150 1;
#X obj 220 136 vline~;
#X obj 223 178 *~;
#X obj 33 35 noise~;
#X obj 26 74 lop~ 3000;
#X obj 27 114 hip~ 1000;
#X obj 99 150 osc~ 180;
#X obj 100 187 *~ 0.5;
#X obj 100 228 *~;
#X obj 118 272 outlet~;
#X connect 0 0 2 0;
#X connect 1 0 2 1;
#X connect 2 0 3 0;
#X connect 3 0 4 0;
#X connect 4 0 5 0;
#X connect 4 0 5 1;
#X connect 5 0 11 1;
#X connect 6 0 7 0;
#X connect 7 0 8 0;
#X connect 8 0 11 0;
#X connect 9 0 10 0;
#X connect 10 0 11 0;
#X connect 11 0 12 0;
#X restore 701 706 pd snare;
#X obj 631 818 dac~;
#X obj 631 748 +~;
#X floatatom 724 673 5 0 1 0 - - - 0;
#X floatatom 307 416 5 0 0 0 - - - 0;
#X msg 692 494 1;
#X obj 51 210 comport 1 9600;
#X obj 263 383 list tosymbol;
#X obj 263 416 f;
#N canvas 0 28 1440 872 spliter 0;
#X obj 24 22 inlet;
#X obj 24 156 fudiparse;
#X obj 34 182 array set \$0-steps;
#X obj 34 75 list tosymbol;
#X symbolatom 34 101 10 0 0 0 - - - 0;
#X floatatom 95 156 5 0 0 0 - - - 0;
#X obj 161 156 fudiparse;
#X obj 171 182 array set \$0-steps;
#X obj 171 75 list tosymbol;
#X symbolatom 171 101 10 0 0 0 - - - 0;
#X floatatom 232 156 5 0 0 0 - - - 0;
#X obj 297 156 fudiparse;
#X obj 307 182 array set \$0-steps;
#X obj 307 75 list tosymbol;
#X symbolatom 307 101 10 0 0 0 - - - 0;
#X floatatom 368 156 5 0 0 0 - - - 0;
#X obj 433 156 fudiparse;
#X obj 443 182 array set \$0-steps;
#X obj 443 75 list tosymbol;
#X symbolatom 443 101 10 0 0 0 - - - 0;
#X floatatom 504 156 5 0 0 0 - - - 0;
#X obj 31 128 loadbang;
#X msg 95 128 0;
#X obj 168 128 loadbang;
#X msg 232 128 1;
#X obj 304 128 loadbang;
#X msg 368 128 2;
#X obj 440 128 loadbang;
#X msg 504 128 3;
#X obj 569 156 fudiparse;
#X obj 579 182 array set \$0-steps;
#X obj 579 75 list tosymbol;
#X symbolatom 579 101 10 0 0 0 - - - 0;
#X floatatom 640 156 5 0 0 0 - - - 0;
#X obj 706 156 fudiparse;
#X obj 716 182 array set \$0-steps;
#X obj 716 75 list tosymbol;
#X symbolatom 716 101 10 0 0 0 - - - 0;
#X floatatom 777 156 5 0 0 0 - - - 0;
#X obj 842 156 fudiparse;
#X obj 852 182 array set \$0-steps;
#X obj 852 75 list tosymbol;
#X symbolatom 852 101 10 0 0 0 - - - 0;
#X floatatom 913 156 5 0 0 0 - - - 0;
#X obj 978 156 fudiparse;
#X obj 988 182 array set \$0-steps;
#X obj 988 75 list tosymbol;
#X symbolatom 988 101 10 0 0 0 - - - 0;
#X floatatom 1049 156 5 0 0 0 - - - 0;
#X obj 576 128 loadbang;
#X obj 713 128 loadbang;
#X obj 849 128 loadbang;
#X obj 985 128 loadbang;
#X msg 640 128 4;
#X msg 777 128 5;
#X msg 913 128 6;
#X msg 1049 128 7;
#X obj 24 50 list split 2;
#X obj 161 50 list split 2;
#X obj 297 50 list split 2;
#X obj 433 50 list split 2;
#X obj 569 50 list split 2;
#X obj 842 50 list split 2;
#X obj 706 50 list split 2;
#X obj 978 50 list split 2;
#X connect 0 0 57 0;
#X connect 1 0 2 0;
#X connect 3 0 4 0;
#X connect 5 0 2 1;
#X connect 6 0 7 0;
#X connect 8 0 9 0;
#X connect 10 0 7 1;
#X connect 11 0 12 0;
#X connect 13 0 14 0;
#X connect 15 0 12 1;
#X connect 16 0 17 0;
#X connect 18 0 19 0;
#X connect 20 0 17 1;
#X connect 21 0 22 0;
#X connect 22 0 5 0;
#X connect 23 0 24 0;
#X connect 24 0 10 0;
#X connect 25 0 26 0;
#X connect 26 0 15 0;
#X connect 27 0 28 0;
#X connect 28 0 20 0;
#X connect 29 0 30 0;
#X connect 31 0 32 0;
#X connect 33 0 30 1;
#X connect 34 0 35 0;
#X connect 36 0 37 0;
#X connect 38 0 35 1;
#X connect 39 0 40 0;
#X connect 41 0 42 0;
#X connect 43 0 40 1;
#X connect 44 0 45 0;
#X connect 46 0 47 0;
#X connect 48 0 45 1;
#X connect 49 0 53 0;
#X connect 50 0 54 0;
#X connect 51 0 55 0;
#X connect 52 0 56 0;
#X connect 53 0 33 0;
#X connect 54 0 38 0;
#X connect 55 0 43 0;
#X connect 56 0 48 0;
#X connect 57 0 3 0;
#X connect 57 0 1 0;
#X connect 57 1 58 0;
#X connect 58 0 8 0;
#X connect 58 0 6 0;
#X connect 58 1 59 0;
#X connect 59 0 13 0;
#X connect 59 0 11 0;
#X connect 59 1 60 0;
#X connect 60 0 18 0;
#X connect 60 0 16 0;
#X connect 60 1 61 0;
#X connect 61 0 31 0;
#X connect 61 0 29 0;
#X connect 61 1 63 0;
#X connect 62 0 41 0;
#X connect 62 0 39 0;
#X connect 62 1 64 0;
#X connect 63 0 36 0;
#X connect 63 0 34 0;
#X connect 63 1 62 0;
#X connect 64 0 46 0;
#X connect 64 0 44 0;
#X restore 153 449 pd spliter;
#X obj 51 353 list tosymbol;
#X symbolatom 51 387 10 0 0 0 - - - 0;
#X msg 408 446 print S;
#X msg 342 446 print C;
#X obj 475 478 == 0;
#X floatatom 475 509 5 0 0 0 - - - 0;
#X obj 436 541 spigot;
#N canvas 469 494 450 300 kick 0;
#X obj 48 25 inlet;
#X obj 140 27 inlet;
#X obj 54 84 bng 19 250 50 0 empty empty empty 0 -10 0 12 #fcfcfc #000000 #000000;
#X obj 133 89 f;
#X msg 44 133 150 \, 50 70 0;
#X obj 44 164 vline~;
#X obj 44 194 osc~;
#X obj 44 226 *~;
#X msg 145 133 \$1 1 0 \, 0 100 1;
#X obj 145 164 vline~;
#X obj 44 256 outlet~;
#X connect 0 0 2 0;
#X connect 1 0 3 1;
#X connect 2 0 3 0;
#X connect 2 0 4 0;
#X connect 3 0 8 0;
#X connect 4 0 5 0;
#X connect 5 0 6 0;
#X connect 6 0 7 0;
#X connect 7 0 10 0;
#X connect 8 0 9 0;
#X connect 9 0 7 1;
#X restore 631 706 pd kick;
#X floatatom 648 673 5 0 1 0 - - - 0;
#N canvas 0 28 1440 872 hihat 0;
#X obj 137 17 inlet;
#X obj 187 16 inlet;
#X obj 137 47 bng 19 250 50 0 empty empty empty 0 -10 0 12 #fcfcfc #000000 #000000;
#X obj 169 72 f;
#X obj 210 72 t f b;
#X obj 228 105 random 10;
#X obj 228 135 / 20;
#X obj 228 167 + 0.7;
#X obj 210 200 *;
#X obj 125 201 noise~;
#X obj 125 229 hip~ 20000;
#X obj 125 258 hip~ 10000;
#X obj 155 306 *~;
#X obj 155 334 outlet~;
#X msg 210 229 \$1 \, 0 40 1;
#X obj 210 259 vline~;
#X connect 0 0 2 0;
#X connect 1 0 3 1;
#X connect 2 0 3 0;
#X connect 3 0 4 0;
#X connect 4 0 8 0;
#X connect 4 1 5 0;
#X connect 5 0 6 0;
#X connect 6 0 7 0;
#X connect 7 0 8 1;
#X connect 8 0 14 0;
#X connect 9 0 10 0;
#X connect 10 0 11 0;
#X connect 11 0 12 0;
#X connect 12 0 13 0;
#X connect 14 0 15 0;
#X connect 15 0 12 1;
#X restore 776 706 pd hihat;
#X floatatom 799 673 5 0 1 0 - - - 0;
#X obj 939 559 loadbang;
#X msg 939 591 1;
#X obj 342 44 bng 19 250 50 0 empty empty empty 0 -10 0 12 #fcfcfc #000000 #000000;
#X obj 632 147 loadbang;
#X obj 426 44 bng 19 250 50 0 empty empty empty 0 -10 0 12 #fcfcfc #000000 #000000;
#X msg 342 81 1;
#X msg 426 81 0;
#X text 332 25 Start;
#X text 421 24 Stop;
#X obj 631 783 vstplugin~;
#X msg 408 706 open -e ValhallaSupermassive;
#X obj 408 618 loadbang;
#X msg 408 745 param_list;
#X obj 411 819 hsl 162 19 0 1 0 0 empty empty empty -2 -10 0 12 #fcfcfc #000000 #000000 0 1;
#X msg 503 745 preset_list;
#X obj 408 657 delay 10;
#X msg 482 657 \; pd dsp 1;
#X msg 43 706 program_read /Users/thomasfresco/Desktop/projeto TI/projetoTIArduino/reverbTI.vpreset;
#X obj 475 412 % 8;
#X msg 632 182 0 0 0 0 0 0 0 0;
#X obj 160 382 list tosymbol;
#X obj 160 414 f;
#X floatatom 197 414 5 0 0 0 - - - 0;
#X obj 296 567 /;
#X floatatom 314 538 5 0 0 0 - - - 0;
#X floatatom 296 597 5 0 0 0 - - - 0;
#X obj 243 509 loadbang;
#X obj 193 347 list split 3;
#X msg 314 509 100;
#X obj 718 813 print;
#X floatatom 525 321 5 0 0 0 - - - 0;
#X obj 153 316 list split 16;
#N canvas 0 28 1440 872 inst 1;
#X obj 23 25 inlet;
#X obj 159 450 outlet~;
#X obj 170 374 vstplugin~;
#X msg 44 374 open -e TyrellN6;
#X obj 44 346 loadbang;
#X msg 43 255 midi_noteoff 1 60;
#X obj 43 228 bng 19 250 50 0 empty empty empty 0 -10 0 12 #fcfcfc #000000 #000000;
#X floatatom 91 62 5 0 0 0 - - - 0;
#X obj 73 25 inlet;
#X msg 23 169 midi_note 1 60 80;
#X msg 158 169 midi_note 1 64 80;
#X msg 292 169 midi_note 1 67 80;
#X obj 43 200 delay;
#X obj 179 228 bng 19 250 50 0 empty empty empty 0 -10 0 12 #fcfcfc #000000 #000000;
#X obj 179 200 delay;
#X msg 179 255 midi_noteoff 1 64;
#X obj 315 228 bng 19 250 50 0 empty empty empty 0 -10 0 12 #fcfcfc #000000 #000000;
#X obj 315 200 delay;
#X msg 315 255 midi_noteoff 1 67;
#X obj 594 228 bng 19 250 50 0 empty empty empty 0 -10 0 12 #fcfcfc #000000 #000000;
#X obj 594 200 delay;
#X obj 219 450 outlet~;
#X obj 731 228 bng 19 250 50 0 empty empty empty 0 -10 0 12 #fcfcfc #000000 #000000;
#X obj 731 200 delay;
#X obj 455 228 bng 19 250 50 0 empty empty empty 0 -10 0 12 #fcfcfc #000000 #000000;
#X obj 455 200 delay;
#X obj 23 62 random 6;
#X obj 23 96 select 0 1 2 3 4 5;
#X msg 432 169 midi_note 1 71 80;
#X msg 455 255 midi_noteoff 1 71;
#X msg 571 169 midi_note 1 72 80;
#X msg 594 255 midi_noteoff 1 72;
#X msg 708 169 midi_note 1 74 80;
#X msg 731 255 midi_noteoff 1 74;
#X connect 0 0 26 0;
#X connect 2 0 1 0;
#X connect 2 1 21 0;
#X connect 3 0 2 0;
#X connect 4 0 3 0;
#X connect 5 0 2 0;
#X connect 6 0 5 0;
#X connect 8 0 12 1;
#X connect 8 0 14 1;
#X connect 8 0 17 1;
#X connect 8 0 20 1;
#X connect 8 0 23 1;
#X connect 8 0 25 1;
#X connect 9 0 2 0;
#X connect 10 0 2 0;
#X connect 11 0 2 0;
#X connect 12 0 6 0;
#X connect 13 0 15 0;
#X connect 14 0 13 0;
#X connect 15 0 2 0;
#X connect 16 0 18 0;
#X connect 17 0 16 0;
#X connect 18 0 2 0;
#X connect 19 0 31 0;
#X connect 20 0 19 0;
#X connect 22 0 33 0;
#X connect 23 0 22 0;
#X connect 24 0 29 0;
#X connect 25 0 24 0;
#X connect 26 0 7 0;
#X connect 26 0 27 0;
#X connect 27 0 9 0;
#X connect 27 0 12 0;
#X connect 27 1 10 0;
#X connect 27 1 14 0;
#X connect 27 2 11 0;
#X connect 27 2 17 0;
#X connect 27 3 28 0;
#X connect 27 3 25 0;
#X connect 27 4 30 0;
#X connect 27 4 20 0;
#X connect 27 5 32 0;
#X connect 27 5 23 0;
#X connect 28 0 2 0;
#X connect 29 0 2 0;
#X connect 30 0 2 0;
#X connect 31 0 2 0;
#X connect 32 0 2 0;
#X connect 33 0 2 0;
#X restore 850 706 pd inst;
#X text 631 416 0:[] 1:K 2:S 3:H 4:I 5:KS 6:KH 7:KI 8:SH 9:SI 10:HI 11:KSH 12:KSI 13:KHI 14:SHI 15:KSHI;
#X obj 631 591 select 1 2 3 4 5 6 7 8 9 10 11 12 13 14 15;
#X msg 408 784 param_set 0 \$1;
#X connect 0 0 29 0;
#X connect 1 0 2 0;
#X connect 1 2 3 0;
#X connect 2 0 5 0;
#X connect 2 0 3 1;
#X connect 2 0 16 0;
#X connect 3 0 4 0;
#X connect 3 0 5 1;
#X connect 4 0 3 1;
#X connect 5 0 75 0;
#X connect 6 0 29 0;
#X connect 7 0 29 0;
#X connect 10 0 20 0;
#X connect 11 0 12 0;
#X connect 12 0 17 0;
#X connect 12 0 36 0;
#X connect 12 0 35 0;
#X connect 13 0 15 0;
#X connect 14 0 13 0;
#X connect 15 0 11 1;
#X connect 15 0 74 0;
#X connect 16 0 14 0;
#X connect 17 0 18 0;
#X connect 17 0 62 0;
#X connect 18 0 17 1;
#X connect 19 0 10 0;
#X connect 19 0 37 0;
#X connect 20 0 22 0;
#X connect 22 0 78 0;
#X connect 23 0 25 0;
#X connect 25 0 53 0;
#X connect 25 0 53 1;
#X connect 26 0 23 1;
#X connect 27 0 67 0;
#X connect 28 0 20 1;
#X connect 29 0 1 0;
#X connect 30 0 31 0;
#X connect 31 0 27 0;
#X connect 33 0 34 0;
#X connect 35 0 39 0;
#X connect 36 0 29 0;
#X connect 37 0 38 0;
#X connect 38 0 39 1;
#X connect 39 0 29 0;
#X connect 40 0 25 0;
#X connect 41 0 40 1;
#X connect 42 0 25 0;
#X connect 43 0 42 1;
#X connect 44 0 45 0;
#X connect 45 0 41 0;
#X connect 45 0 26 0;
#X connect 45 0 43 0;
#X connect 46 0 7 0;
#X connect 46 0 49 0;
#X connect 46 0 63 0;
#X connect 47 0 63 0;
#X connect 48 0 50 0;
#X connect 48 0 63 0;
#X connect 48 0 6 0;
#X connect 49 0 11 0;
#X connect 50 0 11 0;
#X connect 53 0 24 0;
#X connect 53 1 24 1;
#X connect 53 2 73 0;
#X connect 54 0 53 0;
#X connect 55 0 59 0;
#X connect 55 0 60 0;
#X connect 56 0 53 0;
#X connect 57 0 79 0;
#X connect 58 0 53 0;
#X connect 59 0 54 0;
#X connect 62 0 19 0;
#X connect 63 0 9 0;
#X connect 64 0 65 0;
#X connect 65 0 66 0;
#X connect 66 0 13 1;
#X connect 67 0 69 0;
#X connect 68 0 67 1;
#X connect 69 0 57 0;
#X connect 70 0 72 0;
#X connect 71 0 64 0;
#X connect 71 1 30 0;
#X connect 72 0 68 0;
#X connect 74 0 76 1;
#X connect 75 0 33 0;
#X connect 75 0 32 0;
#X connect 75 1 71 0;
#X connect 76 0 25 0;
#X connect 76 1 25 1;
#X connect 78 0 40 0;
#X connect 78 1 23 0;
#X connect 78 2 42 0;
#X connect 78 3 76 0;
#X connect 78 4 40 0;
#X connect 78 4 23 0;
#X connect 78 5 40 0;
#X connect 78 5 42 0;
#X connect 78 6 40 0;
#X connect 78 6 76 0;
#X connect 78 7 23 0;
#X connect 78 7 42 0;
#X connect 78 8 23 0;
#X connect 78 8 76 0;
#X connect 78 9 42 0;
#X connect 78 9 76 0;
#X connect 78 10 40 0;
#X connect 78 10 23 0;
#X connect 78 10 42 0;
#X connect 78 11 40 0;
#X connect 78 11 23 0;
#X connect 78 11 76 0;
#X connect 78 12 40 0;
#X connect 78 12 42 0;
#X connect 78 12 76 0;
#X connect 78 13 23 0;
#X connect 78 13 42 0;
#X connect 78 13 76 0;
#X connect 78 14 40 0;
#X connect 78 14 23 0;
#X connect 78 14 42 0;
#X connect 78 14 76 0;
#X connect 79 0 53 0;
